<svg version="1.1" xmlns="http://www.w3.org/2000/svg" width="70" height="64" viewBox="0 0 872 804"><path d="M0 0 C287.76 0 575.52 0 872 0 C872 265.32 872 530.64 872 804 C584.24 804 296.48 804 0 804 C0 538.68 0 273.36 0 0 Z " fill="#00BB80" transform="translate(0,0)" /><path d="M0 0 C139.59 0 279.18 0 423 0 C423 33.33 423 66.66 423 101 C325.65 101 228.3 101 128 101 C128 120.14 128 139.28 128 159 C147.30539413 158.91291279 166.61071434 158.81853121 185.91601276 158.71247292 C194.8897127 158.66338075 203.86340781 158.61701882 212.8371582 158.578125 C223.26258877 158.53253337 233.6879503 158.4786361 244.11328125 158.4140625 C245.41387159 158.40603969 245.41387159 158.40603969 246.74073648 158.3978548 C275.27673287 158.21703995 303.79354745 157.69172164 332.31516612 156.7570622 C356.5756123 155.97629578 380.69340197 156 405 156 C405 190.65 405 225.3 405 261 C365.62848513 261 365.62848513 261 350.95458984 260.62768555 C348.33309947 260.56144118 345.71151406 260.50201026 343.08984375 260.44335938 C328.89936389 260.11067154 328.89936389 260.11067154 322.12612915 259.76147461 C303.16813193 258.79785058 284.20638004 258.77997878 265.22895432 258.69667697 C260.38837771 258.67448659 255.54782917 258.64726301 250.70727539 258.62062073 C241.5813954 258.57113267 232.45549947 258.52603513 223.32958889 258.48259836 C210.96919321 258.42350502 198.60883468 258.3574602 186.24847221 258.29184818 C166.83234001 258.18896192 147.41617484 258.09521705 128 258 C128 302.55 128 347.1 128 393 C86.09 393 44.18 393 1 393 C1 373.50602823 1.00661135 354.22615429 1.71337891 334.78710938 C3.2587841 290.17039632 3.18834102 245.51942737 3.18511075 200.88246542 C3.18541388 194.74266937 3.19355067 188.60291777 3.20581055 182.46313477 C3.28039447 144.23341157 3.08281542 106.03406717 2.05078125 67.81640625 C2.02907293 67.00581528 2.00736461 66.19522432 1.98499846 65.36006999 C1.84065087 59.99704895 1.68743702 54.63433734 1.52856445 49.27172852 C1.49056292 47.95544275 1.45256138 46.63915699 1.41340828 45.28298378 C1.21338759 38.89960511 0.91334671 32.5416048 0.46696472 26.17051697 C-0.03087159 17.45983741 0 8.72489423 0 0 Z " fill="#DCFB74" transform="translate(168,181)" /><path d="M0 0 C10.48923515 8.3848118 17.49315353 19.87848706 20.4921875 32.9921875 C20.77781382 35.91526997 20.82625478 38.8065364 20.8046875 41.7421875 C20.79731567 42.93134766 20.79731567 42.93134766 20.78979492 44.14453125 C20.66419067 50.46210318 19.8278471 56.08211767 17.4921875 61.9921875 C17.16347656 62.82878906 16.83476563 63.66539062 16.49609375 64.52734375 C13.39923869 71.46044142 8.81680915 76.64901316 3.4921875 81.9921875 C2.93789063 82.5696875 2.38359375 83.1471875 1.8125 83.7421875 C-8.57928478 93.66866848 -22.82406629 96.52628654 -36.66015625 96.3046875 C-50.65616943 95.16795546 -63.01808801 88.17110986 -72.5078125 77.9921875 C-75.22121276 74.49807046 -77.42388762 70.89114373 -79.5078125 66.9921875 C-80.01699219 66.06148438 -80.52617188 65.13078125 -81.05078125 64.171875 C-84.3809364 57.02650008 -84.96140311 50.61519125 -85.0078125 42.8046875 C-85.01417725 41.89033936 -85.02054199 40.97599121 -85.02709961 40.03393555 C-84.77640173 26.59192721 -79.45002758 14.86330338 -70.1953125 5.1171875 C-50.53160157 -13.28219007 -22.07200781 -15.26046831 0 0 Z " fill="#DBFB74" transform="translate(708.5078125,232.0078125)" /></svg>